<svg xmlns="http://www.w3.org/2000/svg" xmlns:xlink="http://www.w3.org/1999/xlink" width="60" height="60" viewBox="0 0 60 60">
    <defs>
        <linearGradient id="prefix__c" x1="2.202%" x2="95.083%" y1="68.781%" y2="64.343%">
            <stop offset="0%" stop-color="#002345"/>
            <stop offset="100%" stop-color="#00B2FF"/>
        </linearGradient>
        <path id="prefix__a" d="M0 0H60V60H0z"/>
    </defs>
    <g fill="none" fill-rule="evenodd">
        <mask id="prefix__b" fill="#fff">
            <use xlink:href="#prefix__a"/>
        </mask>
        <use fill="#F3F4F7" xlink:href="#prefix__a"/>
        <g mask="url(#prefix__b)">
            <g>
                <path fill="url(#prefix__c)" d="M68.273 2.767c.614.56.659 1.51.1 2.125L56.331 18.12c-1.887 2.072-4.887 2.706-7.451 1.574l-7.197-3.177c-1.355-.599-2.94-.282-3.96.791l-5.245 5.515c-1.832 1.927-4.65 2.547-7.122 1.568l-6.408-2.538c-1.345-.533-2.879-.185-3.863.875L3.088 35.645c-.565.609-1.517.644-2.126.078-.608-.565-.643-1.517-.078-2.126L12.882 20.68c1.828-1.969 4.677-2.613 7.174-1.624l6.409 2.538c1.33.527 2.848.193 3.834-.844l5.245-5.515c1.896-1.993 4.838-2.581 7.354-1.47l7.198 3.177c1.38.61 2.996.268 4.012-.848l12.04-13.227c.56-.615 1.51-.66 2.125-.1z" opacity=".25" transform="translate(-17 15)"/>
                <path fill="#002345" d="M60.717 30.141l.002.002h.002c.732.409 1.55.61 2.444.61.894 0 1.712-.201 2.444-.61h.002l.002-.002c.73-.418 1.3-.995 1.709-1.725.42-.734.626-1.558.626-2.463s-.206-1.729-.626-2.462c-.409-.732-.982-1.304-1.713-1.712-.732-.408-1.55-.609-2.444-.609-.894 0-1.712.2-2.444.609-.731.408-1.309.98-1.728 1.71-.42.733-.627 1.558-.627 2.464 0 .906.206 1.73.627 2.465.418.729.995 1.305 1.724 1.723zm6.26-6.456c.36.627.55 1.33.573 2.111-.022-.78-.213-1.484-.573-2.11-.372-.669-.892-1.19-1.56-1.562-.669-.372-1.42-.558-2.252-.558-.833 0-1.583.186-2.251.558-.669.373-1.194.893-1.578 1.562-.357.621-.547 1.318-.572 2.091.025-.773.215-1.47.572-2.092.384-.668.91-1.188 1.578-1.56.668-.373 1.418-.56 2.251-.56s1.583.187 2.251.56c.669.372 1.189.892 1.561 1.56zm-2.37-.333l.005.003.004.002c.424.236.754.574.994 1.024.24.45.364.971.364 1.572 0 .601-.125 1.122-.364 1.573-.24.45-.572.795-.998 1.042-.416.236-.895.359-1.447.359-.55 0-1.035-.122-1.463-.359-.415-.246-.748-.592-1-1.045-.238-.45-.363-.97-.363-1.57 0-.6.125-1.12.363-1.57.252-.454.584-.792.998-1.028h.002l.001-.001c.428-.248.912-.374 1.462-.374.55 0 1.027.126 1.442.372zm-1.442 5.97c.613 0 1.161-.137 1.643-.41.493-.286.877-.686 1.15-1.2.24-.451.375-.956.405-1.516-.03.56-.165 1.065-.404 1.516-.274.515-.658.914-1.15 1.2-.483.273-1.03.41-1.644.41-.614 0-1.167-.137-1.66-.41-.482-.286-.865-.685-1.15-1.2-.26-.488-.396-1.04-.41-1.656.014.616.15 1.168.41 1.655.285.515.668.915 1.15 1.2.493.274 1.046.41 1.66.41zM55.554 30.5h2.114V16.667h-1.76l-5.383 9.282-5.437-9.282h-1.759V30.5h2.114v-9.322l4.503 7.663h1.106l4.502-7.711v9.37zm-5.027-3.767l5.609-9.672h1.137-1.137l-5.61 9.672zm5.422 3.373V19.67v10.436zM44.861 17.06h-1.136v13.045V17.06h1.136zM36.893.045v7.728h1.175V.045h6.993c2.784 0 5.04 2.257 5.04 5.042 0 2.058-1.232 3.828-3 4.612l2.63 4.349-.017.01h-2.73l-2.375-3.929h-4.184v3.929h-2.357v-3.929h-1.175v3.929h-2.357v-3.929h-4.184l-2.374 3.929h-2.731l-.016-.01L33.695.045h3.198zm8.168 7.728h-4.636V2.401h4.636c1.483 0 2.685 1.202 2.685 2.686 0 1.483-1.202 2.686-2.685 2.686zM34.536 3.209v4.564h-2.76l2.76-4.564z" transform="translate(-17 15)"/>
                <path fill="#002345" d="M51.604 10.531h7.157l.035-.748v-.009c0-.91-.194-1.734-.591-2.457-.395-.729-.943-1.303-1.643-1.713-.7-.41-1.488-.612-2.352-.612-.864 0-1.656.201-2.367.611h-.001l-.001.001c-.699.41-1.252.983-1.658 1.71v.002l-.002.003c-.396.732-.59 1.554-.59 2.455 0 .906.207 1.731.628 2.465.419.73 1.002 1.307 1.742 1.725l.004.002.003.002c.755.407 1.61.606 2.554.606.737 0 1.42-.129 2.043-.393.636-.264 1.17-.651 1.597-1.163l.215-.258-1.174-1.35-.299.338c-.29.329-.631.578-1.025.752-.396.163-.835.248-1.324.248-.872 0-1.563-.248-2.104-.722-.442-.396-.726-.89-.847-1.495zm4.759-4.585c.635.372 1.133.892 1.495 1.56.361.658.542 1.414.542 2.268 0-.854-.18-1.61-.542-2.267-.362-.669-.86-1.189-1.495-1.561-.636-.373-1.353-.56-2.153-.56s-1.523.187-2.17.56c-.635.372-1.139.892-1.511 1.56-.275.508-.445 1.066-.511 1.674.066-.608.236-1.166.51-1.673.373-.669.877-1.189 1.513-1.561.646-.373 1.369-.56 2.169-.56s1.517.187 2.153.56zm1.495 6.82l-.657-.757c-.089.1-.182.195-.28.282-.263.238-.559.429-.887.573-.45.186-.942.28-1.48.28-.952 0-1.741-.275-2.365-.823-.53-.474-.86-1.07-.987-1.79-.023-.128-.039-.26-.049-.395.066.898.411 1.627 1.036 2.186.624.547 1.413.821 2.366.821.537 0 1.03-.093 1.479-.28.449-.196.838-.481 1.167-.854l.657.756zm-5.48-5.284c.49-.463 1.093-.698 1.832-.698.751 0 1.351.236 1.83.695l.002.003.003.003c.394.364.656.82.779 1.385H51.61c.122-.567.38-1.024.766-1.388zm4.905 1.783h-6.13 6.13z" transform="translate(-17 15)"/>
            </g>
        </g>
    </g>
</svg>
