<svg xmlns="http://www.w3.org/2000/svg" width="32" height="32" viewBox="0 0 32 32">
    <path fill-rule="evenodd" d="M23.333 5c1.56 0 3.187.2 4.667.667C29 6 29.867 6.4 30.667 7v19.467c0 .333-.334.666-.667.666-.133 0-.2 0-.333-.066-1.867-1-4.134-1.4-6.334-1.4-2.266 0-5.533.866-7.333 2-1.933-1.467-4.733-2-7.333-2-1.934 0-4.534.6-6.334 1.466-.133 0-.2.067-.333.067-.333 0-.667-.333-.667-.667V7c1.934-1.467 4.734-2 7.334-2 2.6 0 5.4.533 7.333 2 1.933-1.467 4.733-2 7.333-2zm0 2.667c-2.266 0-5.533.866-7.333 2V25c1.8-1.133 5.067-2 7.333-2 1.6 0 3.2.2 4.667.667V8.333c-1.467-.466-3.067-.666-4.667-.666zm0 10.44c1.147 0 2.28.106 3.334.32v2.026c-1.027-.226-2.16-.346-3.334-.346-2.4 0-4.493.466-6 1.32v-2.214c1.68-.72 3.734-1.106 6-1.106zm0-3.56c1.147 0 2.28.12 3.334.32v2.026c-1.027-.226-2.16-.346-3.334-.346-2.4 0-4.493.466-6 1.32v-2.214c1.68-.706 3.734-1.106 6-1.106zm0-3.547c1.147 0 2.28.12 3.334.32v2.027C25.64 13.12 24.507 13 23.333 13c-2.4 0-4.493.467-6 1.32v-2.213c1.68-.72 3.734-1.107 6-1.107z"/>
</svg>
