<svg xmlns="http://www.w3.org/2000/svg" width="48" height="48" viewBox="0 0 48 48">
    <g fill="none" fill-rule="evenodd" opacity=".4">
        <g>
            <g>
                <g transform="translate(-104 -76) translate(104 76)">
                    <circle cx="24" cy="24" r="23.143" stroke="#002345" stroke-width="1.714"/>
                    <g fill="#002345">
                        <path d="M26.25 5.625c1.755 0 3.585.225 5.25.75 1.125.375 2.1.825 3 1.5v21.9c0 .375-.375.75-.75.75-.15 0-.225 0-.375-.075-2.1-1.125-4.65-1.575-7.125-1.575-2.55 0-6.225.975-8.25 2.25-2.175-1.65-5.325-2.25-8.25-2.25-2.175 0-5.1.675-7.125 1.65-.15 0-.225.075-.375.075-.375 0-.75-.375-.75-.75V7.875c2.175-1.65 5.325-2.25 8.25-2.25s6.075.6 8.25 2.25c2.175-1.65 5.325-2.25 8.25-2.25zm0 3c-2.55 0-6.225.975-8.25 2.25v17.25c2.025-1.275 5.7-2.25 8.25-2.25 1.8 0 3.6.225 5.25.75V9.375c-1.65-.525-3.45-.75-5.25-.75zm0 11.745c1.29 0 2.565.12 3.75.36v2.28c-1.155-.255-2.43-.39-3.75-.39-2.7 0-5.055.525-6.75 1.485v-2.49c1.89-.81 4.2-1.245 6.75-1.245zm0-4.005c1.29 0 2.565.135 3.75.36v2.28c-1.155-.255-2.43-.39-3.75-.39-2.7 0-5.055.525-6.75 1.485v-2.49c1.89-.795 4.2-1.245 6.75-1.245zm0-3.99c1.29 0 2.565.135 3.75.36v2.28c-1.155-.255-2.43-.39-3.75-.39-2.7 0-5.055.525-6.75 1.485v-2.49c1.89-.81 4.2-1.245 6.75-1.245z" transform="translate(6 6)"/>
                    </g>
                </g>
            </g>
        </g>
    </g>
</svg>
